<svg width="588" height="484" viewBox="0 0 588 484" fill="none" xmlns="http://www.w3.org/2000/svg">
    <g clip-path="url(#clip0_3256_101111)">
    <path d="M512 513V11L289 72.6666L289 513H512Z" fill="#726CB4"/>
    <path d="M447 160.227H487.901V57L447 68.1607V160.227Z" fill="#545294"/>
    <path d="M464.278 83.5L447.391 67.3659V159.916H464.278V83.5Z" fill="#B4B2D7"/>
    <path d="M53.1939 466.446H31V488.64H53.1939V466.446Z" fill="#F6F6F6"/>
    <path d="M75.3882 466.446H53.1943V488.64H75.3882V466.446Z" fill="#F6F6F6"/>
    <path d="M75.3892 444.252H53.1953V466.446H75.3892V444.252Z" fill="#F6F6F6"/>
    <path d="M97.5835 444.252H75.3896V466.446H97.5835V444.252Z" fill="#F6F6F6"/>
    <path d="M97.5825 422.059H75.3887V444.252H97.5825V422.059Z" fill="#F6F6F6"/>
    <path d="M119.777 422.059H97.583V444.252H119.777V422.059Z" fill="#F6F6F6"/>
    <path d="M119.775 399.865H97.5811V422.059H119.775V399.865Z" fill="#F6F6F6"/>
    <path d="M141.969 399.865H119.775V422.059H141.969V399.865Z" fill="#F6F6F6"/>
    <path d="M141.97 377.671H119.776V399.865H141.97V377.671Z" fill="#F6F6F6"/>
    <path d="M164.165 377.671H141.971V399.865H164.165V377.671Z" fill="#F6F6F6"/>
    <path d="M164.164 355.477H141.97V377.671H164.164V355.477Z" fill="#F6F6F6"/>
    <path d="M186.356 355.477H164.162V377.671H186.356V355.477Z" fill="#F6F6F6"/>
    <path d="M186.356 333.283H164.162V355.477H186.356V333.283Z" fill="#F6F6F6"/>
    <path d="M208.549 333.283H186.355V355.477H208.549V333.283Z" fill="#F6F6F6"/>
    <path d="M208.551 355.477H186.357L75.3877 466.446V488.64H208.551V355.477Z" fill="#F6F6F6"/>
    <path d="M83.104 466.446H60.9102V488.64H83.104V466.446Z" fill="#F6F6F6"/>
    <path d="M105.298 466.446H83.1045V488.64H105.298V466.446Z" fill="#F6F6F6"/>
    <path d="M105.296 444.252H83.1025V466.446H105.296V444.252Z" fill="#F6F6F6"/>
    <path d="M127.491 444.252H105.297V466.446H127.491V444.252Z" fill="#F6F6F6"/>
    <path d="M127.492 422.059H105.298V444.252H127.492V422.059Z" fill="#F6F6F6"/>
    <path d="M149.686 422.059H127.492V444.252H149.686V422.059Z" fill="#F6F6F6"/>
    <path d="M149.685 399.865H127.491V422.059H149.685V399.865Z" fill="#F6F6F6"/>
    <path d="M171.879 399.865H149.686V422.059H171.879V399.865Z" fill="#F6F6F6"/>
    <path d="M171.879 377.671H149.686V399.865H171.879V377.671Z" fill="#F6F6F6"/>
    <path d="M194.074 377.671H171.88V399.865H194.074V377.671Z" fill="#F6F6F6"/>
    <path d="M194.072 355.477H171.878V377.671H194.072V355.477Z" fill="#F6F6F6"/>
    <path d="M216.266 355.477H194.072V377.671H216.266V355.477Z" fill="#F6F6F6"/>
    <path d="M255.033 333.283H194.073V355.477H255.033V333.283Z" fill="#F6F6F6"/>
    <path d="M315.999 333.283H255.039V355.477H315.999V333.283Z" fill="#F6F6F6"/>
    <path d="M321.5 355.477H216.269L105.297 466.446V488.64H321.5V355.477Z" fill="#F6F6F6"/>
    <path d="M293.672 446.927L289.113 487.121H460.114L456.237 442.002L424.856 418.988L293.672 446.927Z" fill="#1D1A40"/>
    <path d="M414.653 223.38C414.653 223.38 471.22 250.757 474.847 251.845C478.474 252.933 484.637 256.198 484.637 256.198C484.637 256.198 479.2 381.661 479.2 387.461C479.2 393.262 480.651 412.48 480.651 412.48L266.351 406.317L267.801 248.922L339.959 218.124L355.172 210.147L399.972 213.049L414.656 223.384L414.653 223.38Z" fill="#302B53"/>
    <path d="M264.515 249.195C268.176 252.967 269.63 258.313 270.722 263.452C276.565 290.958 270.334 328.583 275.563 320.861C280.792 313.143 287.201 305.562 296.008 302.504C298.289 301.711 300.972 301.296 302.998 302.608C305.98 304.542 305.854 308.901 305.104 312.374C302.045 326.514 296.155 353.196 293.991 367.499C293.561 370.346 308.725 377.244 310.508 379.503C312.168 381.605 315.005 382.303 317.639 382.789C322.115 383.613 326.634 384.191 331.171 384.523C333.553 384.698 336.209 384.925 337.801 386.708C339.842 388.995 339.071 392.549 338.127 395.466C335.059 404.946 331.435 414.245 327.279 423.3H254.7L264.515 249.192V249.195Z" fill="#1D1A40"/>
    <path d="M309.282 371.209C309.282 371.209 410.083 357.543 435.87 351.478C456.629 346.596 473.486 329.041 473.624 331.297C474.27 341.872 441.514 364.714 440.835 375.289C440.706 377.268 440.537 379.315 439.59 381.058C438.363 383.311 436.036 384.713 433.789 385.949C401.141 403.901 362.892 409.84 330.523 428.289" fill="#1D1A40"/>
    <path d="M327.54 115.082C327.54 115.082 325.124 136.674 328.73 136.674C332.336 136.674 334.149 115.082 334.149 115.082H327.54Z" stroke="#FF3635" stroke-width="1.96732" stroke-miterlimit="10"/>
    <path d="M413.863 114.231C404.958 102.16 379.229 105.522 357.856 101.367C336.483 97.2106 337.473 108.689 337.473 108.689C337.473 108.689 336.717 113.598 335.794 119.924C333.148 124.252 322.315 138.036 320.443 141.684C319.647 143.234 320.815 145.05 322.601 145.05C325.272 145.521 327.316 145.179 330.326 145.201C330.08 147.343 329.081 149.618 328.469 151.699C328.165 152.732 327.857 153.79 327.922 154.862C327.983 155.935 328.491 157.048 329.444 157.546C329.757 157.709 330.172 157.906 330.132 158.256C330.108 158.477 329.899 158.622 329.717 158.751C327.664 160.22 327.089 163.393 328.497 165.489C328.924 166.122 329.499 166.663 329.816 167.358C330.427 168.72 329.905 170.29 329.431 171.708C328.752 173.739 328.189 175.811 327.744 177.905C327.372 179.648 327.873 186.466 329.788 186.656C333.901 187.065 356.725 185.03 356.725 185.03L354.945 222.634L395.586 224.469L398.257 207.931C398.257 207.931 400.123 196.48 400.052 195.644C399.855 193.268 402.161 177.732 402.161 177.732C407.703 163.285 415.852 157.377 422.184 141.346C428.517 125.316 422.778 126.305 413.872 114.234L413.863 114.231Z" fill="#FFC37E"/>
    <path d="M400.046 195.641C396.705 196.367 372.59 210.147 372.59 210.147C372.59 210.147 360.986 199.269 355.911 197.092L355.004 213.046C355.004 213.046 350.11 245.86 350.833 258.734C351.555 271.608 357.359 374.225 357.359 374.225L363.522 377.489L397.606 233.715L399.963 213.046L400.043 195.641H400.046Z" fill="white"/>
    <path d="M352.113 212.001L339.956 218.124L324.392 254.243L333.276 260.225L319.677 277.451L350.318 379.343L354.305 376.079L347.705 257.87L352.113 212.001Z" fill="#1D1A40"/>
    <path d="M329.278 84.8502C325.082 87.1741 321.691 91.4868 323.059 99.2547C324.003 104.613 328.356 106.18 327.722 107.213C324.51 106.202 321.396 104.444 318.344 99.1071C319.727 102.814 322.294 106.073 325.574 108.286C328.854 110.499 333.176 112.012 337.07 111.305C340.203 110.736 344.091 109.811 349.111 111.483C369.688 118.332 376.306 108.51 374.6 123.019C374.29 125.648 372.525 133.772 375.245 136.674L385.18 137.261C386.219 135.066 386.278 132.536 387.053 130.237C387.858 127.852 392.318 119.214 402.877 124.28C404.051 124.842 404.992 125.82 405.487 127.025C406.643 129.84 406.034 133.157 404.522 135.804C402.997 138.472 400.658 140.568 398.251 142.48C392.46 147.088 397.596 162.461 399.536 172.716C401.884 185.15 400.562 180.262 400.046 194.19C410.165 188.024 412.582 173.189 416.439 162.188C420.792 149.763 433.564 141.039 435.605 128.036C436.761 120.665 434.056 112.983 429.224 107.302C424.392 101.619 417.608 97.8192 410.464 95.6766C406.123 94.3764 401.626 93.6478 397.301 92.2922C392.45 90.7706 387.806 88.4559 382.771 87.752C376.816 86.919 370.072 88.9263 362.667 89.8823C355.877 90.7553 349.151 88.4928 343.916 84.0817C342.874 83.2026 341.515 82.3972 339.689 82.3972C330.43 82.3972 329.278 92.0156 329.278 92.0156C329.278 92.0156 328.3 89.1998 329.278 84.8533" fill="#302B53"/>
    <path d="M341.601 122.291C340.639 126.075 340.501 129.496 340.501 129.496C340.501 129.496 347.175 129.93 352.4 127.366C352.4 127.366 349.188 124.793 341.601 122.291Z" fill="white"/>
    <path d="M341.601 122.291C341.601 122.291 340.863 123.502 340.571 125.912C340.313 128.048 340.5 129.493 340.5 129.493C340.5 129.493 344.149 130.099 345.437 126.607C346.707 123.164 341.601 122.288 341.601 122.288V122.291Z" fill="#302B53"/>
    <path d="M339.994 122.217C344.903 122.291 352.401 127.366 352.401 127.366" stroke="#302B53" stroke-width="0.663972" stroke-miterlimit="10"/>
    <path d="M339.91 115.122C347.253 114.615 357.185 118.925 357.437 120.569C357.689 122.214 354.554 119.533 347.905 118.836C342.209 118.239 339.024 119.023 339.024 119.023L339.91 115.119V115.122Z" fill="#302B53"/>
    <path d="M330.13 158.25C336.856 158.981 341.915 156.857 341.294 156.415" stroke="#302B53" stroke-width="0.663972" stroke-miterlimit="10"/>
    <path d="M330.322 145.198L334.764 144.832L329.259 149.28L330.322 145.198Z" fill="#E4B37D"/>
    <path d="M356.543 185.011L367.111 183.85L356.066 195.076L356.543 185.011Z" fill="#E4B37D"/>
    <path d="M339.495 115.082C339.495 115.082 332.109 136.674 343.731 136.674C355.354 136.674 361.191 115.104 361.191 115.104L339.495 115.082V115.082Z" stroke="#FF3635" stroke-width="1.96732" stroke-miterlimit="10"/>
    <path d="M334.149 115.082H339.91" stroke="#FF3635" stroke-width="1.96732" stroke-miterlimit="10"/>
    <path d="M393.96 128.257C392.733 129.714 391.749 131.479 391.676 133.382C391.602 135.284 392.632 137.313 394.421 137.968C394.768 138.094 395.149 138.171 395.509 138.085C395.868 137.999 396.2 137.722 396.268 137.359C396.379 136.76 395.801 136.29 395.426 135.81C394.691 134.866 394.697 133.415 395.444 132.481C396.385 131.304 398.263 130.944 398.761 129.521C399.148 128.417 398.349 126.557 397.12 126.29C395.921 126.032 394.636 127.458 393.956 128.26L393.96 128.257Z" fill="#E4B37D"/>
    <path d="M413.762 308.412H446.804V331.368C446.804 331.368 446.804 326.662 438.467 321.842C430.131 317.022 414.057 316.303 413.759 310.41" fill="#1D1A40"/>
    <path d="M329.278 84.8502C325.082 87.1741 321.691 91.4868 323.059 99.2547C324.003 104.613 328.356 106.18 327.722 107.213C324.51 106.202 321.396 104.444 318.344 99.1071C319.727 102.814 322.294 106.073 325.574 108.286C328.854 110.499 333.176 112.012 337.07 111.305C340.203 110.736 344.091 109.811 349.111 111.483C369.688 118.332 376.306 108.51 374.6 123.019C374.29 125.648 372.525 133.772 375.245 136.674L385.18 137.261C386.219 135.066 386.278 132.536 387.053 130.237C387.858 127.852 392.318 119.214 402.877 124.28C404.051 124.842 404.992 125.82 405.487 127.025C406.643 129.84 406.034 133.157 404.522 135.804C402.997 138.472 400.658 140.568 398.251 142.48C392.46 147.088 397.596 162.461 399.536 172.716C401.884 185.15 400.562 180.262 400.046 194.19C410.165 188.024 412.582 173.189 416.439 162.188C420.792 149.763 433.564 141.039 435.605 128.036C436.761 120.665 434.056 112.983 429.224 107.302C424.392 101.619 417.608 97.8192 410.464 95.6766C406.123 94.3764 401.626 93.6478 397.301 92.2922C392.45 90.7706 387.806 88.4559 382.771 87.752C376.816 86.919 370.072 88.9263 362.667 89.8823C355.877 90.7553 349.151 88.4928 343.916 84.0817C342.874 83.2026 341.515 82.3972 339.689 82.3972C330.43 82.3972 329.278 92.0156 329.278 92.0156C329.278 92.0156 328.3 89.1998 329.278 84.8533" fill="#302B53"/>
    <path d="M378.503 136.683C378.125 132.512 377.858 128.279 378.586 124.154C379.315 120.028 381.128 115.968 384.316 113.247C382.81 115.986 381.682 119.174 381.765 122.3C381.82 124.39 382.607 126.382 383.16 128.399C383.938 131.227 384.273 134.178 384.147 137.11" fill="#1D1A40"/>
    <path d="M415.053 151.213C411.573 155.363 408.954 160.236 407.445 165.44C404.328 159.839 404.814 152.999 405.521 146.63C406.04 141.949 406.603 137.073 405.819 132.496C405.554 133.655 405.106 134.78 404.519 135.807C402.994 138.475 400.655 140.572 398.248 142.483C392.456 147.091 397.593 162.464 399.533 172.719C401.881 185.153 400.559 180.265 400.043 194.193C410.162 188.027 412.578 173.192 416.436 162.191C416.95 160.724 417.586 159.31 418.302 157.933C418.118 156.092 418.044 154.244 418.161 152.446C418.268 150.755 416.141 149.916 415.053 151.213Z" fill="#1D1A40"/>
    <path d="M377.56 94.7637C378.304 93.9829 379.414 93.6909 380.364 93.1806C381.317 92.6703 382.214 91.6774 381.947 90.6292C381.686 89.6056 380.505 89.166 379.485 88.8863C378.194 88.5297 376.903 88.1762 375.615 87.8196C371.572 88.2961 367.244 89.2859 362.667 89.8761C360.116 90.205 357.57 90.0882 355.111 89.5841C362.895 92.9224 370.997 95.5168 379.273 97.3089C378.221 96.9769 378.021 95.7627 377.56 94.7637Z" fill="#1D1A40"/>
    <path d="M361.191 115.104L391.334 124.446" stroke="#FF3635" stroke-width="1.96732" stroke-miterlimit="10"/>
    <path d="M379.823 221.93L385.085 232.983L399.966 213.046L379.823 245.949L380.954 283.156C380.994 284.512 380.932 285.868 380.769 287.211L375.488 330.437L362.808 251.442L359.153 229.175L364.613 220.841" fill="#EDEDED"/>
    <mask id="mask0_3256_101111" style="mask-type:alpha" maskUnits="userSpaceOnUse" x="355" y="210" width="25" height="168">
    <path d="M372.587 210.147L379.82 221.933L374.582 230.998C374.582 230.998 377.847 254.928 377.847 265.988C377.847 277.048 373.74 334.396 373.74 334.396L363.525 377.489L357.362 374.225L355.14 334.885C355.14 334.885 359.901 275.053 360.264 266.892C360.627 258.734 367.482 230.995 367.482 230.995L364.614 220.841L372.59 210.144L372.587 210.147Z" fill="#726CB4"/>
    </mask>
    <g mask="url(#mask0_3256_101111)">
    <path d="M372.587 210.147L379.82 221.933L374.582 230.998C374.582 230.998 377.847 254.928 377.847 265.988C377.847 277.048 373.74 334.396 373.74 334.396L363.525 377.489L357.362 374.225L355.14 334.885C355.14 334.885 359.901 275.053 360.264 266.892C360.627 258.734 367.482 230.995 367.482 230.995L364.614 220.841L372.59 210.144L372.587 210.147Z" fill="#FF393D"/>
    <path d="M380.962 241.51H380.698C379.401 241.51 378.352 240.459 378.352 239.165V238.901C378.352 237.603 377.301 236.555 376.007 236.555H374.98C373.683 236.555 372.635 237.607 372.635 238.901V239.165C372.635 240.462 371.584 241.51 370.289 241.51H370.025C368.728 241.51 367.68 242.562 367.68 243.856V244.883C367.68 246.18 368.731 247.228 370.025 247.228H370.289C371.587 247.228 372.635 248.279 372.635 249.573V249.838C372.635 251.135 373.686 252.183 374.98 252.183H376.007C377.304 252.183 378.352 251.132 378.352 249.838V249.573C378.352 248.276 379.404 247.228 380.698 247.228H380.962C382.259 247.228 383.308 246.177 383.308 244.883V243.856C383.308 242.559 382.256 241.51 380.962 241.51Z" fill="#CA363A"/>
    <path d="M371.031 215.105H370.766C369.469 215.105 368.421 214.054 368.421 212.76V212.496C368.421 211.198 367.369 210.15 366.075 210.15H365.049C363.751 210.15 362.703 211.201 362.703 212.496V212.76C362.703 214.057 361.652 215.105 360.358 215.105H360.093C358.796 215.105 357.748 216.157 357.748 217.451V218.477C357.748 219.775 358.799 220.823 360.093 220.823H360.358C361.655 220.823 362.703 221.874 362.703 223.168V223.433C362.703 224.73 363.755 225.778 365.049 225.778H366.075C367.373 225.778 368.421 224.727 368.421 223.433V223.168C368.421 221.871 369.472 220.823 370.766 220.823H371.031C372.328 220.823 373.376 219.772 373.376 218.477V217.451C373.376 216.154 372.325 215.105 371.031 215.105Z" fill="#CA363A"/>
    <path d="M373.141 264.132H372.877C371.579 264.132 370.531 263.08 370.531 261.786V261.522C370.531 260.225 369.48 259.176 368.186 259.176H367.159C365.862 259.176 364.814 260.228 364.814 261.522V261.786C364.814 263.083 363.762 264.132 362.468 264.132H362.204C360.907 264.132 359.858 265.183 359.858 266.477V267.504C359.858 268.801 360.91 269.849 362.204 269.849H362.468C363.765 269.849 364.814 270.9 364.814 272.195V272.459C364.814 273.756 365.865 274.804 367.159 274.804H368.186C369.483 274.804 370.531 273.753 370.531 272.459V272.195C370.531 270.897 371.582 269.849 372.877 269.849H373.141C374.438 269.849 375.486 268.798 375.486 267.504V266.477C375.486 265.18 374.435 264.132 373.141 264.132Z" fill="#CA363A"/>
    <path d="M376.122 295.314H375.858C374.561 295.314 373.513 294.262 373.513 292.968V292.704C373.513 291.407 372.461 290.359 371.167 290.359H370.14C368.843 290.359 367.795 291.41 367.795 292.704V292.968C367.795 294.265 366.744 295.314 365.45 295.314H365.185C363.888 295.314 362.84 296.365 362.84 297.659V298.686C362.84 299.983 363.891 301.031 365.185 301.031H365.45C366.747 301.031 367.795 302.083 367.795 303.377V303.641C367.795 304.938 368.846 305.986 370.14 305.986H371.167C372.464 305.986 373.513 304.935 373.513 303.641V303.377C373.513 302.079 374.564 301.031 375.858 301.031H376.122C377.42 301.031 378.468 299.98 378.468 298.686V297.659C378.468 296.362 377.416 295.314 376.122 295.314Z" fill="#CA363A"/>
    <path d="M361.536 318.645H361.272C359.975 318.645 358.927 317.594 358.927 316.299V316.035C358.927 314.738 357.875 313.69 356.581 313.69H355.555C354.257 313.69 353.209 314.741 353.209 316.035V316.299C353.209 317.597 352.158 318.645 350.864 318.645H350.599C349.302 318.645 348.254 319.696 348.254 320.99V322.017C348.254 323.314 349.305 324.362 350.599 324.362H350.864C352.161 324.362 353.209 325.414 353.209 326.708V326.972C353.209 328.269 354.26 329.318 355.555 329.318H356.581C357.878 329.318 358.927 328.266 358.927 326.972V326.708C358.927 325.411 359.978 324.362 361.272 324.362H361.536C362.834 324.362 363.882 323.311 363.882 322.017V320.99C363.882 319.693 362.831 318.645 361.536 318.645Z" fill="#CA363A"/>
    <path d="M376.122 341.45H375.858C374.561 341.45 373.513 340.399 373.513 339.105V338.841C373.513 337.544 372.461 336.495 371.167 336.495H370.14C368.843 336.495 367.795 337.547 367.795 338.841V339.105C367.795 340.402 366.744 341.45 365.45 341.45H365.185C363.888 341.45 362.84 342.502 362.84 343.796V344.823C362.84 346.12 363.891 347.168 365.185 347.168H365.45C366.747 347.168 367.795 348.219 367.795 349.513V349.778C367.795 351.075 368.846 352.123 370.14 352.123H371.167C372.464 352.123 373.513 351.072 373.513 349.778V349.513C373.513 348.216 374.564 347.168 375.858 347.168H376.122C377.42 347.168 378.468 346.117 378.468 344.823V343.796C378.468 342.499 377.416 341.45 376.122 341.45Z" fill="#CA363A"/>
    <path d="M360.606 360.5H360.341C359.044 360.5 357.996 359.448 357.996 358.154V357.89C357.996 356.593 356.945 355.545 355.651 355.545H354.624C353.327 355.545 352.278 356.596 352.278 357.89V358.154C352.278 359.452 351.227 360.5 349.933 360.5H349.669C348.371 360.5 347.323 361.551 347.323 362.845V363.872C347.323 365.169 348.375 366.217 349.669 366.217H349.933C351.23 366.217 352.278 367.269 352.278 368.563V368.827C352.278 370.124 353.33 371.172 354.624 371.172H355.651C356.948 371.172 357.996 370.121 357.996 368.827V368.563C357.996 367.265 359.047 366.217 360.341 366.217H360.606C361.903 366.217 362.951 365.166 362.951 363.872V362.845C362.951 361.548 361.9 360.5 360.606 360.5Z" fill="#CA363A"/>
    </g>
    <path d="M403.611 216.556L373.803 344.537L365.556 377.883C365.556 377.883 372.103 380.256 371.593 379.712C371.083 379.168 419.217 281.423 419.217 281.423L401.232 261.454L420.213 260.594L414.647 223.38L403.608 216.556H403.611Z" fill="#1D1A40"/>
    <path d="M484.635 256.198C488.987 251.845 492.974 259.825 493.7 263.812C494.425 267.802 495.876 293.817 495.876 293.817C495.876 293.817 504.941 335.244 504.941 344.309C504.941 353.374 506.392 403.052 504.941 415.016C503.49 426.983 496.602 442.937 478.471 443.299C460.341 443.662 325.088 429.882 325.088 429.882L340.046 368.603L479.467 394.676L473.621 383.225L484.632 256.195L484.635 256.198Z" fill="#302B53"/>
    <path d="M399.965 213.046L369.687 343.04L361.439 376.386C361.439 376.386 367.987 378.759 367.477 378.215C366.966 377.671 415.375 281.035 415.375 280.494C415.375 279.95 401.235 261.457 401.235 261.457L416.1 259.1L414.649 223.383L399.965 213.049V213.046Z" fill="#302B53"/>
    <path d="M355.17 210.147L339.957 218.124L327.446 252.389L336.33 258.371L322.73 275.598L353.372 377.489L357.361 374.225L350.762 256.017L355.17 210.147Z" fill="#302B53"/>
    <path d="M267.797 248.922C265.621 245.319 253.295 251.845 251.481 258.374C249.667 264.903 237.341 417.558 237.341 428.8C237.341 440.041 240.243 446.93 280.127 446.93C320.011 446.93 436.649 427.865 436.649 427.865L425.77 359.694L266.42 398.328L267.797 248.925V248.922Z" fill="#302B53"/>
    <path d="M427.369 369.712C411.077 371.043 399.239 371.916 383.175 374.923C350.957 380.954 318.991 393.508 286.693 393.48L266.42 398.325L267.097 324.858C265.658 310.176 263.749 295.541 261.379 280.983C260.441 275.226 259.43 269.477 258.345 263.748C257.675 260.206 257.395 255.857 256.08 252.186C253.885 253.994 252.09 256.183 251.481 258.371C249.667 264.897 237.341 417.555 237.341 428.797C237.341 440.038 240.243 446.927 280.127 446.927C320.011 446.927 436.649 427.862 436.649 427.862L427.369 369.712Z" fill="#1D1A40"/>
    <path d="M425.874 360.349L430.245 359.178L438.868 406.846L433.47 407.946L425.874 360.349Z" fill="white"/>
    <path d="M263.952 412.133L270.524 409.068L257.862 381.928L250.202 382.097L263.952 412.133Z" fill="#EE1623"/>
    <path d="M337.682 378.295L320.132 373.801C320.132 373.801 302.971 356.639 300.069 351.561C297.167 346.486 283.934 329.385 280.343 326.056C274.002 320.179 271.22 323.001 270.817 327.144C270.544 329.96 275.652 336.09 277.343 338.023C279.034 339.957 284.355 348.856 283.629 349.12C282.904 349.384 273.719 342.858 266.345 341.65C258.97 340.442 246.69 342.379 243.524 344.312C240.357 346.246 238.667 353.497 238.424 355.913C238.181 358.33 238.424 360.989 238.424 360.989L245.436 359.055C245.436 359.055 247.612 352.621 251.479 351.97C255.346 351.318 266.468 352.526 268.884 355.185C268.884 355.185 248.82 358.207 247.126 358.631C245.436 359.055 237.947 360.69 237.336 361.259C236.115 362.396 236.34 366.245 236.884 367.696C237.428 369.147 239.331 370.143 239.331 370.143C239.331 370.143 235.885 372.319 235.341 375.943C234.797 379.567 238.639 381.839 240.523 382.017C242.411 382.199 264.076 382.017 264.076 382.017C264.076 382.017 246.49 386.278 241.412 387.003C236.337 387.729 230.303 390.234 227.813 391.264C223.586 393.013 224.358 398.082 225.818 398.697C228.842 399.972 256.729 396.794 261.897 396.975C267.064 397.157 284.106 400.873 288.821 402.413C293.534 403.953 328.841 414.481 328.841 414.481L337.675 378.292L337.682 378.295Z" fill="#FFC37E"/>
    <path d="M239.329 370.146C250.574 368.043 265.651 366.187 274 368.738" stroke="#C48D5E" stroke-width="0.713155" stroke-miterlimit="10"/>
    <path d="M274.004 322.709C276.943 327.913 279.881 328.377 281.867 327.639" stroke="#C48D5E" stroke-width="0.713155" stroke-miterlimit="10"/>
    <path d="M227.82 391.267C236.119 391.006 233.027 393.944 231.634 395.026C230.242 396.108 224.798 397.086 224.798 397.086" stroke="#C48D5E" stroke-width="0.713155" stroke-miterlimit="10"/>
    <path d="M238.424 360.989L245.435 359.055" stroke="#C48D5E" stroke-width="0.713155" stroke-miterlimit="10"/>
    <path d="M240.154 360.512L247.128 358.634L235.189 333.323L228.62 336.391L240.154 360.512Z" fill="#EE1623"/>
    <path d="M235.189 333.323L226.416 322.869L228.62 336.391" fill="#EE1623"/>
    <path d="M327.4 375.664L315.66 418.825L326.902 422.458L337.682 378.295L327.4 375.664Z" fill="white"/>
    <path d="M474.054 384.071L479.471 394.679L461.777 391.371L333.919 393.714L326.902 422.458L325.088 429.885C365.068 433.838 465.275 443.564 478.471 443.303C496.602 442.94 503.49 426.986 504.941 415.019C506.392 403.052 504.941 353.377 504.941 344.312C504.941 343.793 504.91 343.163 504.855 342.443C497.244 328.374 487.567 316.327 487.291 311.317C486.894 304.096 484.635 256.201 484.635 256.201L480.144 380.456L474.051 384.077L474.054 384.071Z" fill="#1D1A40"/>
    <path d="M430.244 359.178C430.244 359.178 448.737 351.757 451.276 349.123C453.815 346.489 475.994 328.758 481.01 325.82C484.638 323.695 485.969 333.222 481.01 338.875C479.479 340.621 476.658 344.312 476.658 344.312C476.658 344.312 502.731 346.692 505.587 348.179C509.211 350.067 511.787 355.585 508.282 359.694C508.282 359.694 513.766 366.067 512.555 370.177C511.347 374.286 508.63 374.422 508.63 374.422C508.63 374.422 512.435 381.538 511.347 385.162C510.259 388.789 505.587 389.635 505.587 389.635L505.565 386.853C505.565 386.853 502.888 385.282 500.109 384.799C497.33 384.317 479.298 385.03 479.298 385.03C479.298 385.03 502.562 392.06 505.587 393.259C510.139 395.063 510.837 402.917 502.134 400.864C493.432 398.81 479.467 394.676 479.467 394.676L434.569 386.278L430.244 359.172V359.178Z" fill="#FFC37E"/>
    <path d="M473.623 331.294C479.799 332.103 482.264 325.967 482.264 325.967" stroke="#C48D5E" stroke-width="0.713155" stroke-miterlimit="10"/>
    <path d="M476.657 344.309C473.023 343.688 470.589 343.572 470.589 343.572" stroke="#C48D5E" stroke-width="0.713155" stroke-miterlimit="10"/>
    <path d="M508.28 359.694C502.019 357.26 471.485 355.984 471.485 355.984" stroke="#C48D5E" stroke-width="0.713155" stroke-miterlimit="10"/>
    <path d="M508.63 374.422C501.787 372.915 471.487 369.783 471.487 369.783" stroke="#C48D5E" stroke-width="0.713155" stroke-miterlimit="10"/>
    <path d="M349.658 155.446C351.543 140.673 358.938 136.185 365.197 134.221C365.455 135.73 364.622 137.184 363.891 138.527C361.127 143.609 359.43 149.268 358.942 155.034" fill="#E4B37D"/>
    <path d="M414.24 308.163C417.084 297.582 425.629 288.791 435.989 285.788C437.787 280.627 441.78 276.179 446.504 273.569C446.504 274.463 446.803 275.665 446.803 276.56V307.84L414.237 308.166L414.24 308.163Z" fill="white"/>
    <mask id="mask1_3256_101111" style="mask-type:alpha" maskUnits="userSpaceOnUse" x="414" y="273" width="33" height="36">
    <path d="M414.24 308.163C417.084 297.582 425.629 288.791 435.989 285.788C437.787 280.627 441.78 276.179 446.504 273.569C446.504 274.463 446.803 275.665 446.803 276.56V307.84L414.237 308.166L414.24 308.163Z" fill="white"/>
    </mask>
    <g mask="url(#mask1_3256_101111)">
    <path d="M429.391 288.542H429.019C427.205 288.542 425.733 287.073 425.733 285.256V284.884C425.733 283.07 424.264 281.598 422.447 281.598H421.011C419.198 281.598 417.725 283.067 417.725 284.884V285.256C417.725 287.069 416.256 288.542 414.439 288.542H414.067C412.254 288.542 410.781 290.011 410.781 291.828V293.263C410.781 295.077 412.251 296.55 414.067 296.55H414.439C416.253 296.55 417.725 298.019 417.725 299.836V300.208C417.725 302.021 419.195 303.494 421.011 303.494H422.447C424.26 303.494 425.733 302.024 425.733 300.208V299.836C425.733 298.022 427.202 296.55 429.019 296.55H429.391C431.205 296.55 432.677 295.08 432.677 293.263V291.828C432.677 290.014 431.208 288.542 429.391 288.542Z" fill="#FF393D"/>
    <path d="M448.849 305.117H448.477C446.663 305.117 445.191 303.647 445.191 301.831V301.459C445.191 299.645 443.722 298.173 441.905 298.173H440.469C438.656 298.173 437.183 299.642 437.183 301.459V301.831C437.183 303.644 435.714 305.117 433.897 305.117H433.525C431.712 305.117 430.239 306.586 430.239 308.403V309.838C430.239 311.652 431.709 313.124 433.525 313.124H433.897C435.711 313.124 437.183 314.594 437.183 316.41V316.782C437.183 318.596 438.653 320.068 440.469 320.068H441.905C443.718 320.068 445.191 318.599 445.191 316.782V316.41C445.191 314.597 446.66 313.124 448.477 313.124H448.849C450.663 313.124 452.135 311.655 452.135 309.838V308.403C452.135 306.589 450.666 305.117 448.849 305.117Z" fill="#FF393D"/>
    <path d="M454.465 273.861H454.093C452.28 273.861 450.807 272.391 450.807 270.575V270.203C450.807 268.389 449.338 266.917 447.521 266.917H446.086C444.272 266.917 442.8 268.386 442.8 270.203V270.575C442.8 272.388 441.33 273.861 439.513 273.861H439.142C437.328 273.861 435.855 275.33 435.855 277.147V278.582C435.855 280.396 437.325 281.868 439.142 281.868H439.513C441.327 281.868 442.8 283.338 442.8 285.154V285.526C442.8 287.34 444.269 288.812 446.086 288.812H447.521C449.335 288.812 450.807 287.343 450.807 285.526V285.154C450.807 283.341 452.276 281.868 454.093 281.868H454.465C456.279 281.868 457.751 280.399 457.751 278.582V277.147C457.751 275.333 456.282 273.861 454.465 273.861Z" fill="#FF393D"/>
    </g>
    <path d="M502.168 495.043V197.565L560.966 159.114H592.96V495.793L502.168 495.043Z" fill="#E6E6E6"/>
    <path d="M593 159.113H560.967V492.206H593V159.113Z" fill="white"/>
    <path d="M560.966 267.913H454.567V512.147H560.966V267.913Z" fill="#B4B2D7"/>
    <path d="M560.967 302.169H509.663V512.147H560.967V302.169Z" fill="#726CB4"/>
    <path d="M509.663 302.169L533.818 326V512.147H509.663V302.169Z" fill="white"/>
    </g>
    <defs>
    <clipPath id="clip0_3256_101111">
    <rect width="588" height="484" fill="white"/>
    </clipPath>
    </defs>
</svg>
