<svg width="146" height="32" viewBox="0 0 146 32" fill="none" xmlns="http://www.w3.org/2000/svg">
<g clip-path="url(#clip0_2059_59606)">
<path d="M21.3246 0.5L0 21.9698H21.3246V0.5ZM0 11.2077H10.6352L0 0.5V11.2077Z" fill="#FF393D"/>
<path d="M72.8639 21.9051H75.427V10.5181H73.1911L69.0464 17.4159L64.9013 10.5181H62.6654V21.9051H65.2285V15.4452L68.3916 20.7008H69.6463L72.8639 15.281V21.9047V21.9051ZM82.2444 19.8797C80.9355 19.8797 80.063 18.9487 80.063 17.5258C80.063 16.1021 80.9355 15.1715 82.2444 15.1715C83.5537 15.1715 84.4262 16.1025 84.4262 17.5258C84.4262 18.9491 83.5537 19.8797 82.2444 19.8797ZM82.2444 12.9271C79.4086 12.9271 77.3908 14.8431 77.3908 17.4711C77.3908 20.0987 79.4086 22.0146 82.2444 22.0146C85.0261 22.0146 87.0985 20.0987 87.0985 17.4711C87.0985 14.8431 85.0261 12.9271 82.2444 12.9271ZM93.7518 15.3905H94.3517V12.9271H94.2971C93.0428 12.9271 92.0066 13.3107 91.4067 14.0767V13.0913H88.8977V21.8504H91.5158V17.69C91.5158 16.2116 92.2793 15.3905 93.7518 15.3905ZM99.2607 22.0146C100.079 22.0146 100.842 21.7957 101.333 21.4672H101.388L100.679 19.5513L100.624 19.606C100.351 19.825 99.9697 19.9344 99.6424 19.9344C98.988 19.9344 98.6608 19.5508 98.6608 18.8396V15.3905H100.788V13.3103H98.6608V11.1754H95.9881V18.8392C95.9881 20.865 97.1879 22.0146 99.2607 22.0146ZM107.223 19.2771C105.914 19.2771 104.987 18.456 104.987 17.1969C104.987 15.9926 105.914 15.1168 107.223 15.1168C108.532 15.1168 109.405 15.9926 109.405 17.1969C109.405 18.456 108.478 19.2771 107.223 19.2771ZM107.114 25.1349C110.387 25.1349 112.023 23.5474 112.023 20.3719V13.0913H109.514V14.0771C108.859 13.3655 107.878 12.9823 106.732 12.9823C104.224 12.9823 102.37 14.7883 102.37 17.2521C102.37 19.7159 104.224 21.5224 106.732 21.5224C107.823 21.5224 108.75 21.1939 109.405 20.537V20.756C109.405 22.3435 108.641 23.0551 106.951 23.0551C105.86 23.0551 104.66 22.6715 103.951 22.0698L103.897 22.015L102.86 23.931L102.915 23.9857C103.788 24.6974 105.369 25.1353 107.114 25.1353V25.1349ZM118.676 19.825C117.367 19.825 116.549 18.8939 116.549 17.4707C116.549 16.0474 117.422 15.1168 118.676 15.1168C119.93 15.1168 120.803 16.0474 120.803 17.4707C120.803 18.8939 119.93 19.825 118.676 19.825ZM123.367 21.9051V13.0913H120.748V13.9125C120.149 13.3103 119.276 12.9814 118.24 12.9814C115.677 12.9814 113.877 14.8431 113.877 17.5254C113.877 20.2082 115.677 22.0694 118.24 22.0694C119.331 22.0694 120.258 21.7409 120.858 21.084V21.9599H123.367V21.9051ZM130.129 19.2771C128.821 19.2771 127.893 18.456 127.893 17.1969C127.893 15.9926 128.821 15.1168 130.129 15.1168C131.438 15.1168 132.311 15.9926 132.311 17.1969C132.311 18.456 131.438 19.2771 130.129 19.2771ZM130.02 25.1349C133.292 25.1349 134.929 23.5474 134.929 20.3719V13.0913H132.42V14.0771C131.765 13.3655 130.784 12.9823 129.639 12.9823C127.13 12.9823 125.275 14.7883 125.275 17.2521C125.275 19.7159 127.13 21.5224 129.639 21.5224C130.729 21.5224 131.656 21.1939 132.311 20.537V20.756C132.311 22.3435 131.547 23.0551 129.857 23.0551C128.766 23.0551 127.566 22.6715 126.857 22.0698L126.803 22.015L125.766 23.931L125.821 23.9857C126.694 24.6974 128.275 25.1353 130.02 25.1353V25.1349ZM139.401 16.6495C139.619 15.6094 140.382 14.9525 141.473 14.9525C142.509 14.9525 143.327 15.6094 143.491 16.6495H139.401ZM145.945 18.0181C145.945 17.8543 146 17.6896 146 17.5254C146 14.8431 144.145 12.9814 141.473 12.9814C138.746 12.9814 136.783 14.8978 136.783 17.5254C136.783 20.2082 138.855 22.0694 141.746 22.0694C143.327 22.0694 144.527 21.5767 145.345 20.6461L145.4 20.5913L143.982 19.0582L143.927 19.1129C143.327 19.6603 142.673 19.934 141.8 19.934C140.546 19.934 139.673 19.3319 139.401 18.3465H145.891V18.2918C145.945 18.128 145.945 18.0728 145.945 18.0181ZM36.2136 17.3612L37.9042 13.2556L39.5948 17.3064L36.2136 17.3612ZM40.4678 19.4961L41.4494 21.9051H44.2852L39.213 10.5181H36.5953L31.5231 21.9051H34.3049L35.2865 19.4965H40.4678V19.4961ZM50.5023 19.6056H48.3754V12.7629H50.5568C52.7386 12.7629 54.2111 14.1319 54.2111 16.212C54.102 18.2922 52.6841 19.606 50.5023 19.606V19.6056ZM50.6113 10.5181H45.5941V21.9051H50.6113C54.3747 21.9051 56.8833 19.606 56.8833 16.2116C56.8833 12.8172 54.3747 10.5181 50.6113 10.5181Z" fill="#303030"/>
</g>
<defs>
<clipPath id="clip0_2059_59606">
<rect width="146" height="25" fill="white" transform="translate(0 0.5)"/>
</clipPath>
</defs>
</svg>
