<svg width="14" height="14" viewBox="0 0 14 14" fill="none" xmlns="http://www.w3.org/2000/svg">
<path d="M5.41955 1.50252C7.57899 1.50252 9.34008 3.26012 9.34008 5.42305C9.34008 7.58598 7.58248 9.34358 5.41955 9.34358C3.25662 9.34358 1.50252 7.58248 1.50252 5.41955C1.50252 3.25662 3.26012 1.50252 5.41955 1.50252ZM5.41955 0C2.42849 0 0 2.42849 0 5.41955C0 8.41062 2.42849 10.8391 5.41955 10.8391C8.41062 10.8391 10.8391 8.41062 10.8391 5.41955C10.8391 2.42849 8.41411 0 5.41955 0Z" fill="#6F6B88"/>
<path d="M9.0933 8.17135L8.10498 9.15967L12.9453 14L13.9336 13.0116L9.0933 8.17135Z" fill="#6F6B88"/>
</svg>
