<svg width="592" height="558" viewBox="0 0 592 558" fill="none" xmlns="http://www.w3.org/2000/svg">
<g clip-path="url(#clip0_19639_81379)">
<rect width="592" height="558" rx="16" fill="white"/>
<g clip-path="url(#clip1_19639_81379)">
<path d="M361.869 206.653C344.96 221.055 307.248 269.533 307.248 269.533C307.248 269.533 301.557 228.833 298.58 219.233C296.628 212.631 295.102 205.91 294.013 199.112C294.013 199.112 240.699 230.402 233.693 239.575C226.687 248.748 230.226 340.636 230.036 352.312C229.846 363.988 217.038 507.944 217.038 507.944H384.524C398.409 495.594 405.707 468.067 407.647 431.296C410.623 375.054 392.662 299.864 398.884 290.295C409.174 274.532 408.755 256.4 398.884 245.033C385.806 230.022 361.869 206.653 361.869 206.653Z" fill="#F3F3FD"/>
<path d="M332.611 340.319C323.698 341.531 314.666 340.525 305.697 339.86C288.204 338.549 270.637 338.549 253.143 339.86C246.755 340.343 238.799 342.371 237.723 348.692C237.097 352.368 239.243 355.877 241.301 358.99C245.939 365.992 250.855 373.248 258.201 377.328C264.273 380.687 271.373 381.503 278.268 382.255L395.583 395.064C396.818 367.339 403.016 321.514 380.598 299.611C370.109 289.369 366.698 298.193 363.618 309.117C358.813 326.077 351.372 337.769 332.611 340.319Z" fill="#EDEDFF"/>
<path d="M392.392 373.502C391.252 379.245 393.833 384.98 396.105 390.367C405.148 411.828 410.158 434.775 410.884 458.055C411.09 464.748 410.884 471.759 407.623 477.621C403.166 485.685 393.643 489.962 384.437 490.358C375.23 490.754 366.23 487.879 357.594 484.607C353.113 482.912 348.498 480.979 345.348 477.367C341.746 473.256 340.598 467.6 339.806 462.19C335.247 430.504 263.314 400.458 275.972 371.094" fill="#EDEDFF"/>
<path d="M208.9 598.645L217.022 507.937L377.455 502.804L404.86 598.09" fill="#322B56"/>
<path d="M369.262 572.908C370.394 567.719 369.896 562.404 369.365 556.772C369.183 554.863 369.001 552.898 368.882 550.95C368.289 540.826 370.466 533.261 375.271 528.461C377.586 526.255 380.42 524.669 383.511 523.851L384.524 527.368C382.016 527.996 379.719 529.277 377.867 531.083C373.814 535.099 372.033 541.713 372.555 550.736C372.666 552.613 372.848 554.554 373.03 556.423C373.561 562.087 374.115 567.949 372.856 573.7C371.273 580.829 367.157 587.119 363.151 593.234C362.051 594.913 360.966 596.569 359.945 598.224H355.655C357.032 595.848 358.56 593.519 360.072 591.206C363.895 585.376 367.853 579.348 369.262 572.908Z" fill="#F59D2F"/>
<path d="M282.993 575.712C284.418 574.73 285.899 573.803 287.331 572.9C290.886 570.666 294.242 568.559 296.965 565.699C301.208 561.224 303.456 555.401 305.831 549.262C307.525 544.866 309.282 540.319 311.855 536.24C313.597 533.475 318.394 527.146 325.312 527.882C330.062 528.389 334.273 532.548 335.603 538.006C336.703 542.695 335.817 547.393 334.811 551.805C332.729 560.994 328.961 570.024 325.312 578.738C322.621 585.17 319.89 591.721 317.84 598.359H313.977C316.241 591.208 318.883 584.182 321.893 577.312C325.471 568.741 329.183 559.885 331.194 550.997C332.104 547.037 332.912 542.783 331.985 538.862C331.194 535.519 328.518 531.938 324.924 531.55C324.698 531.538 324.47 531.538 324.244 531.55C319.573 531.55 316.003 536.628 314.982 538.244C312.607 542.022 310.905 546.403 309.274 550.633C306.9 556.843 304.39 563.267 299.641 568.274C296.601 571.442 292.888 573.819 289.295 576.06C287.901 576.94 286.453 577.851 285.083 578.785C277.703 583.92 271.59 590.671 267.209 598.526H263.029C267.726 589.406 274.58 581.574 282.993 575.712Z" fill="#F59D2F"/>
<path d="M284.972 545.088C282.312 551.425 276.692 558.166 268.855 558.293H268.634C264.391 558.293 260.718 556.336 257.203 554.451C255.052 553.183 252.766 552.161 250.387 551.402C247.609 550.609 244.656 550.657 241.521 550.681C237.935 550.681 234.239 550.72 230.677 549.508C223.212 546.958 218.13 540.003 215.209 528.271L216.491 513.957C216.792 516.825 217.243 519.653 217.726 522.409C220.101 535.876 224.74 543.591 231.864 546.023C234.84 547.037 238.078 547.013 241.498 546.997C244.751 546.997 248.092 546.95 251.361 547.853C254.004 548.684 256.547 549.805 258.944 551.196C262.269 552.978 265.42 554.649 268.8 554.602C274.864 554.507 279.471 548.637 281.576 543.646C286.571 531.764 284.481 518.71 282.471 506.052C282.467 505.98 282.467 505.909 282.471 505.838L286.175 505.719C288.226 518.837 290.363 532.343 284.972 545.088Z" fill="#F59D2F"/>
<path d="M209.929 587.245C211.663 586.005 213.269 584.596 214.726 583.039C216.755 581.035 218.39 578.668 219.547 576.06C221.13 572.099 221.13 567.22 219.389 561.176C217.955 556.297 215.985 551.592 213.515 547.147L214.093 540.707C217.742 546.807 220.972 553.199 222.935 560.17C224.898 567.141 224.874 572.686 222.935 577.438C221.618 580.471 219.737 583.226 217.394 585.558C215.085 588.052 212.417 590.188 209.478 591.895L209.929 587.245Z" fill="#F59D2F"/>
<path d="M226.656 237.627C229.03 216.73 241.894 198.234 257.67 184.331C260.481 181.86 263.417 179.468 265.586 176.41C269.434 170.865 270.225 163.855 270.898 157.153C271.84 147.711 270.803 134.284 276.241 126.062C276.575 125.556 276.937 125.069 277.326 124.604C276.09 111.319 273.164 98.2458 268.618 85.7023C266.679 80.49 264.399 75.4044 263.077 69.9625C261.755 64.5205 260.868 68.3782 258.684 63.2689C254.9 54.397 255.161 44.4952 261.898 43.1248C267.439 41.9999 287.878 48.9154 289.952 53.486C292.279 58.6191 292.976 64.3224 293.348 69.9466C293.965 79.3572 293.751 88.7996 293.53 98.226C293.3 108.049 293.063 117.911 291.685 127.638C292.43 128.653 293.114 129.711 293.736 130.807C304.232 149.073 306.844 173.289 307.193 193.948C307.422 207.216 306.401 220.73 301.652 233.127C296.867 245.59 288.581 256.402 277.793 264.258C271.634 268.718 264.581 272.18 257.045 273.138C249.509 274.097 241.427 272.346 235.672 267.34C227.55 260.258 225.452 248.321 226.656 237.627Z" fill="#1D1B3F"/>
<path d="M270.573 43.1094C258.327 49.9614 259.063 67.943 255.675 73.5355C252.089 79.4607 245.384 86.6217 245.384 90.6299C245.384 93.4737 256.126 93.5132 256.126 93.5132C256.126 93.5132 256.237 112.453 255.976 121.373C255.24 146.721 263.575 143.632 272.457 145.018C279.043 146.048 293.965 146.753 293.965 146.753V216.025C293.965 216.025 295.738 265.645 295.738 273.646C295.738 281.646 306.931 280.965 306.931 280.965C306.931 280.965 352.63 226.307 357.427 213.055C362.224 199.802 355.599 93.7034 344.857 77.9319C334.115 62.1604 327.267 57.5818 314.697 50.9516C302.126 44.3214 270.573 43.1094 270.573 43.1094Z" fill="#FFC383"/>
<path d="M268.752 59.0785C268.244 58.9294 267.701 58.9544 267.208 59.1497C266.96 59.2854 266.761 59.4961 266.639 59.7518C266.546 59.9612 266.503 60.1889 266.511 60.4176C266.519 60.6464 266.578 60.8704 266.685 61.0729C266.791 61.2755 266.942 61.4514 267.126 61.5875C267.31 61.7235 267.522 61.8163 267.747 61.8589C270.668 62.4847 278.172 65.6215 277.879 65.8196C281.655 63.7283 269.924 59.3161 268.752 59.0785Z" fill="#322B56"/>
<path d="M355.868 185.623C336.197 209.569 303.623 209.055 294.005 188.475" stroke="#7A6EB0" stroke-width="0.893387" stroke-miterlimit="10"/>
<path d="M317.453 210.013C316.05 210.013 314.912 207.052 314.912 203.399C314.912 199.746 316.05 196.784 317.453 196.784C318.856 196.784 319.994 199.746 319.994 203.399C319.994 207.052 318.856 210.013 317.453 210.013Z" fill="#9A94CD"/>
<path d="M382.022 219.724C373.814 218.433 361.639 212.595 354.926 207.691" stroke="#1D1B3F" stroke-width="0.597088" stroke-miterlimit="10"/>
<path d="M267.914 67.4113C270.13 66.1518 276.661 72.6394 276.661 72.6394C276.661 72.6394 275.213 75.6019 267.914 76.0931C267.914 76.0931 266.03 68.4806 267.914 67.4113Z" fill="white"/>
<path d="M267.914 76.094C266.873 76.094 266.03 74.1505 266.03 71.753C266.03 69.3556 266.873 67.4121 267.914 67.4121C268.954 67.4121 269.798 69.3556 269.798 71.753C269.798 74.1505 268.954 76.094 267.914 76.094Z" fill="#322B56"/>
<path d="M276.661 72.6404C273.495 68.6798 270.471 67.246 265.246 66.8262" stroke="#322B56" stroke-width="0.448938" stroke-miterlimit="10"/>
<path d="M261.866 93.458L256.143 97.4187C256.143 95.0423 256.143 93.458 256.143 93.458H261.866Z" fill="#E3B281"/>
<path d="M279.233 145.429C286.476 144.637 293.688 143.575 300.86 142.26C304.617 141.706 308.3 140.731 311.839 139.353C315.33 137.864 319.011 135.511 321.014 132.279C318.766 137.238 315.472 141.832 310.921 144.835C307.319 147.211 303.005 148.526 299.672 151.227C296.935 153.452 294.955 156.472 294.004 159.869V146.736C294.004 146.736 284.766 146.292 277.618 145.611C278.157 145.548 278.695 145.492 279.233 145.429Z" fill="#E3B281"/>
<path d="M256.191 102.037C256.515 102.449 256.8 103.003 257.267 103.676C259.31 101.522 264.392 100.643 267.241 100.183C268.083 100.067 268.933 100.022 269.783 100.048H271.104C270.938 104.009 268.556 107.281 265.27 109.427C262.521 111.135 259.39 112.131 256.159 112.327C256.183 108.849 256.191 105.189 256.191 102.037Z" fill="#8D674A"/>
<path d="M271.84 99.2793C271.84 99.2793 266.789 105.664 256.19 106.662" stroke="#1D1D1B" stroke-width="0.597088" stroke-miterlimit="10"/>
<path d="M152.087 380.133C154.419 377.902 156.983 375.926 159.734 374.239C158.15 372.504 156.971 365.953 159.164 363.022C162.663 358.349 166.533 358.523 166.533 358.523C164.887 355.877 163.605 348.724 168.386 345.366C173.167 342.007 175.352 343.29 175.352 343.29C175.352 343.29 165.481 337.65 163.549 336.398C161.618 335.147 150.884 327.178 144.551 322.425C137.862 317.411 133.983 314.892 136.231 312.452C139.469 308.951 147.369 306.979 153.44 310.638C157.794 313.252 164.855 318.773 167.689 320.001C170.523 321.229 184.732 328.77 184.732 328.77C184.732 328.77 190.424 324.207 200.612 323.526C210.8 322.845 227.067 325.689 238.846 333.998C250.625 342.308 269.299 365.684 275.956 371.062C282.613 376.441 307.778 392.759 307.778 392.759L269.972 444.977C269.972 444.977 242.559 427.55 236.994 423.288C228.033 416.452 189.252 407.58 182.025 405.861C168.695 402.764 160.541 397.385 155.902 393.369C151.264 389.353 149.3 383.063 152.087 380.133ZM229.553 352.408C229.553 352.408 225.428 346.372 220.338 343.211C215.248 340.05 207.76 340.906 207.76 340.906C211.401 343.14 229.553 352.424 229.553 352.424V352.408Z" fill="#FCC285"/>
<path d="M175.352 343.282L202.868 361.066" stroke="#B18056" stroke-width="0.951749" stroke-miterlimit="10"/>
<path d="M166.533 358.522C166.533 358.522 174.79 368.82 191.69 375.95" stroke="#B18056" stroke-width="0.951749" stroke-miterlimit="10"/>
<path d="M159.75 374.239C159.75 374.239 170.223 384.997 181.78 390.692" stroke="#B18056" stroke-width="0.951749" stroke-miterlimit="10"/>
<path d="M224.432 339.805L225.255 329.768L179.77 326.029L200.193 336.937L224.432 339.805Z" fill="#EC1C2D"/>
<path d="M160.969 334.585L145.73 323.225L109.642 320.255L108.81 330.291L160.969 334.585Z" fill="#EC1C2D"/>
<path d="M109.642 320.255L90.9995 323.645L108.81 330.291" fill="#EC1C2D"/>
<path d="M148.438 323.74C147.348 320.182 145.476 316.912 142.961 314.171C142.016 312.992 140.739 312.126 139.296 311.684" stroke="#B18056" stroke-width="0.951749" stroke-miterlimit="10"/>
<path d="M230.028 352.312L237.239 355.956" stroke="#B18056" stroke-width="0.951749" stroke-miterlimit="10"/>
<path d="M307.779 392.759L269.972 444.977C269.972 444.977 298.319 469.913 325.123 487.673C351.926 505.433 414.819 542.378 446.839 529.601C485.794 514.051 488.002 467.244 484.646 434.188C481.289 401.132 466.106 341.864 457.32 322.987C448.533 304.111 434.268 285.408 434.268 285.408C434.268 285.408 419.07 264.654 400.72 251.346C382.371 238.038 379.3 235.068 373.877 241.413C368.455 247.758 366.832 276.378 376.054 322.924C385.276 369.47 392.108 385.02 392.622 390.913C393.137 396.807 392.369 428.239 398.267 441.729L307.779 392.759Z" fill="#F3F3FD"/>
<path d="M339.592 409.974L298.77 468.608L349.258 415.202L339.592 409.974Z" fill="#EDEDFF"/>
<path d="M404.575 428.414C412.309 433.602 423.169 445.722 410.116 451.782C405.801 448.871 401.819 445.495 398.242 441.714C396.105 436.826 394.854 429.578 394.086 422.045C397.672 424.033 401.187 426.156 404.575 428.414Z" fill="#EDEDFF"/>
<path d="M446.831 529.602C443.529 530.872 440.065 531.672 436.54 531.978C434.503 524.184 432.917 516.278 431.791 508.301C429.416 491.191 429.946 471.609 442.256 459.49C448.105 453.739 456.417 449.865 459.394 442.213C461.768 436.121 460.027 429.277 458.167 423.004C445.501 380.355 427.848 339.132 418.785 295.58C417.882 291.271 417.075 286.827 417.827 282.494C418.816 276.806 420.835 273.693 423.503 272.418C430.081 279.729 434.245 285.409 434.245 285.409C434.245 285.409 448.493 304.111 457.296 322.988C466.099 341.865 481.289 401.14 484.622 434.188C487.955 467.237 485.786 514.084 446.831 529.602Z" fill="#EDEDFF"/>
<path d="M261.865 43.1092C261.865 50.7692 280.024 65.812 290.996 75.3018C301.967 84.7916 334.407 99.8581 335.096 103.652C335.785 107.447 336.956 137.477 336.679 149.034C335.761 189.505 354.387 202.654 357.411 213.055C360.435 223.456 362.493 253.81 384.602 268.734C406.712 283.658 454.398 311.795 481.644 287.001C507.846 263.158 505.392 233.136 486.236 207.858C463.77 178.185 438.581 179.729 414.422 152.464C390.262 125.199 380.383 83.548 355.297 58.8333C320.333 24.3198 261.865 43.1092 261.865 43.1092Z" fill="#322B56"/>
<path d="M346.06 110.465C350.951 115.638 355.375 121.234 359.28 127.187C362.937 132.772 366.246 139.069 365.834 145.747C365.827 146.428 365.679 147.099 365.399 147.719C364.14 150.159 360.483 149.573 358.077 148.274C352.782 145.409 348.556 140.908 346.029 135.441C343.361 129.603 342.704 122.83 338.96 117.626C338.055 116.398 337.029 115.265 335.896 114.244C335.635 108.96 335.358 104.912 335.105 103.684C334.986 103.027 333.901 102.029 332.152 100.785C333.19 100.941 334.209 101.206 335.192 101.577C339.292 103.486 343.021 107.249 346.06 110.465Z" fill="#1D1B3F"/>
<path d="M365.946 238.776C366.19 237.643 366.737 236.597 367.529 235.75C368.835 234.554 370.822 234.586 372.587 234.689C387.39 235.528 403.206 236.74 414.882 245.882C420.075 249.945 424.12 255.387 429.487 259.189C432.511 261.352 436.121 263.008 439.825 262.691C443.53 262.374 447.187 259.586 447.488 255.878C447.523 254.178 447.177 252.492 446.475 250.943C440.831 236.328 428.751 224.937 422.964 210.378C421.642 207.059 420.692 203.249 422.276 200.009C425.102 194.313 433.406 194.733 439.319 197.046C455.594 203.431 467.816 217.127 478.424 231.013C485.366 240.075 492.055 249.533 499.797 257.867C497.422 268.069 491.643 277.979 481.733 287.001C454.486 311.795 406.792 283.651 384.691 268.735C374.677 261.978 368.787 252.052 365.051 242.253C365.289 241.081 365.566 239.917 365.946 238.776Z" fill="#1D1B3F"/>
<path d="M420.051 177.281C412.926 173.471 406.206 168.417 398.266 166.983C395.02 166.397 391.617 166.445 388.577 165.169C381.31 162.128 378.888 152.867 379.592 145.017C379.869 141.92 380.661 138.553 383.146 136.692C386.717 134.015 391.751 135.67 395.852 137.421L406.269 141.857C408.783 145.551 411.525 149.086 414.478 152.44C431.101 171.229 448.255 176.339 464.649 187.397C445.334 182.082 426.344 180.64 420.051 177.281Z" fill="#1D1B3F"/>
<path d="M283.984 41.3975C284.894 46.887 289.09 51.1566 293.072 55.046L310.154 71.7284C317.374 78.7784 324.688 85.8998 333.348 91.0725C338.85 94.3678 344.858 96.8393 350.067 100.578C355.275 104.317 359.78 109.743 360.357 116.136" stroke="#1D1B3F" stroke-width="0.597088" stroke-miterlimit="10"/>
<path d="M415.119 189.782C403.245 186.986 390.477 183.595 383.044 173.939C373.046 160.988 376.711 142.578 374.099 126.411C371.605 111.091 363.079 97.2997 352.662 85.7979C342.245 74.296 329.904 64.7349 318.061 54.7064C312.766 50.2229 307.224 45.0502 306.14 38.1982" stroke="#1D1B3F" stroke-width="0.597088" stroke-miterlimit="10"/>
<path d="M312.108 91.9211C293.759 84.5621 270.217 63.5703 270.613 43.1094" stroke="#322B56" stroke-width="0.597088" stroke-miterlimit="10"/>
</g>
</g>
<defs>
<clipPath id="clip0_19639_81379">
<rect width="592" height="558" rx="16" fill="white"/>
</clipPath>
<clipPath id="clip1_19639_81379">
<rect width="410" height="560.644" fill="white" transform="matrix(-1 0 0 1 501 38)"/>
</clipPath>
</defs>
</svg>
